<svg viewBox="0 0 237 64" version="1.1" xmlns="http://www.w3.org/2000/svg" xmlns:xlink="http://www.w3.org/1999/xlink">
  <path d="M116.8,46.3 C117.0,46.3 117.2,46.4 117.4,46.6 L118.8,48.0 C117.8,49.1 116.7,50.0 115.5,50.9 C114.3,51.7 113.0,52.5 111.6,53.1 C110.2,53.7 108.7,54.1 107.0,54.5 C105.4,54.8 103.5,55 101.6,55 C98.2,55 95.2,54.4 92.4,53.2 C89.6,52.0 87.2,50.4 85.3,48.2 C83.3,46.1 81.7,43.5 80.6,40.5 C79.5,37.4 79,34.1 79,30.3 C79,26.7 79.5,23.4 80.7,20.3 C81.8,17.3 83.4,14.7 85.5,12.6 C87.6,10.4 90.0,8.7 92.9,7.6 C95.8,6.4 99.0,5.8 102.5,5.8 C104.2,5.8 105.8,5.9 107.3,6.2 C108.7,6.4 110.1,6.8 111.4,7.3 C112.6,7.8 113.8,8.4 114.9,9.1 C116.0,9.8 117.1,10.7 118.2,11.6 L117.1,13.1 C116.9,13.4 116.7,13.5 116.3,13.5 C116.1,13.5 115.8,13.4 115.5,13.2 C115.2,13.0 114.8,12.7 114.3,12.3 C113.8,12.0 113.2,11.6 112.5,11.2 C111.8,10.7 111.0,10.3 110.1,10.0 C109.1,9.6 108.0,9.4 106.8,9.1 C105.5,8.9 104.1,8.8 102.5,8.8 C99.6,8.8 96.9,9.3 94.4,10.3 C92.0,11.3 89.9,12.7 88.1,14.6 C86.4,16.5 85.0,18.7 84.0,21.4 C83.0,24.0 82.5,27.0 82.5,30.3 C82.5,33.7 83.0,36.8 84.0,39.5 C85.0,42.1 86.3,44.4 88.0,46.2 C89.7,48.1 91.8,49.5 94.1,50.5 C96.5,51.5 99.0,52.0 101.8,52.0 C103.5,52.0 105.0,51.8 106.4,51.6 C107.7,51.4 109.0,51.1 110.1,50.6 C111.2,50.1 112.3,49.6 113.2,48.9 C114.2,48.3 115.2,47.5 116.1,46.6 C116.2,46.5 116.4,46.5 116.5,46.4 C116.6,46.3 116.7,46.3 116.8,46.3 Z M129.4,54.4 L129.4,5 L132.6,5 L132.6,54.4 L129.4,54.4 Z M158.3,52.3 C160.3,52.3 162.0,52.0 163.5,51.3 C165.1,50.6 166.3,49.6 167.3,48.3 C168.3,47.0 169.1,45.4 169.6,43.6 C170.1,41.8 170.3,39.7 170.3,37.5 C170.3,35.2 170.1,33.2 169.6,31.4 C169.1,29.5 168.3,28.0 167.3,26.7 C166.3,25.3 165.1,24.3 163.5,23.6 C162.0,22.9 160.3,22.6 158.3,22.6 C156.2,22.6 154.5,22.9 153.0,23.6 C151.5,24.3 150.2,25.3 149.2,26.7 C148.2,28.0 147.4,29.5 146.9,31.4 C146.4,33.2 146.2,35.2 146.2,37.5 C146.2,39.7 146.4,41.8 146.9,43.6 C147.4,45.4 148.2,47.0 149.2,48.3 C150.2,49.6 151.5,50.6 153.0,51.3 C154.5,52.0 156.2,52.3 158.3,52.3 Z M158.3,20.0 C160.7,20.0 162.9,20.5 164.8,21.3 C166.7,22.1 168.3,23.3 169.6,24.8 C170.9,26.3 171.9,28.1 172.6,30.3 C173.3,32.4 173.7,34.8 173.7,37.5 C173.7,40.1 173.3,42.5 172.6,44.7 C171.9,46.8 170.9,48.6 169.6,50.1 C168.3,51.6 166.7,52.8 164.8,53.6 C162.9,54.4 160.7,54.8 158.3,54.8 C155.8,54.8 153.7,54.4 151.7,53.6 C149.8,52.8 148.2,51.6 146.9,50.1 C145.6,48.6 144.6,46.8 143.9,44.7 C143.2,42.5 142.8,40.1 142.8,37.5 C142.8,34.8 143.2,32.4 143.9,30.3 C144.6,28.1 145.6,26.3 146.9,24.8 C148.2,23.3 149.8,22.1 151.7,21.3 C153.7,20.5 155.8,20.0 158.3,20.0 Z M200.8,24.8 C200.6,25.1 200.4,25.3 200.0,25.3 C199.8,25.3 199.5,25.1 199.1,24.9 C198.7,24.6 198.1,24.3 197.5,23.9 C196.9,23.5 196.1,23.2 195.1,22.9 C194.2,22.7 193.0,22.5 191.7,22.5 C190.4,22.5 189.3,22.7 188.3,23.0 C187.3,23.4 186.5,23.9 185.7,24.5 C185.0,25.0 184.5,25.7 184.1,26.5 C183.7,27.3 183.5,28.1 183.5,29.0 C183.5,30.0 183.7,30.9 184.3,31.6 C184.8,32.3 185.6,32.9 186.4,33.4 C187.3,33.9 188.3,34.3 189.4,34.7 C190.6,35.1 191.7,35.4 192.9,35.8 C194.1,36.1 195.2,36.5 196.3,37.0 C197.5,37.4 198.5,38.0 199.4,38.6 C200.2,39.3 200.9,40.1 201.5,41.0 C202.0,42.0 202.3,43.2 202.3,44.5 C202.3,46.0 202.0,47.4 201.5,48.6 C201.0,49.9 200.2,51.0 199.2,51.9 C198.2,52.9 196.9,53.6 195.5,54.1 C194.0,54.7 192.3,55 190.4,55 C188.1,55 186.0,54.6 184.3,53.8 C182.6,53.1 181.0,52.1 179.7,50.8 L180.5,49.7 C180.6,49.5 180.7,49.4 180.8,49.3 C181.0,49.2 181.2,49.1 181.4,49.1 C181.7,49.1 182.1,49.3 182.5,49.7 C182.9,50.0 183.5,50.4 184.2,50.9 C184.9,51.3 185.7,51.7 186.8,52.0 C187.8,52.4 189.1,52.6 190.6,52.6 C192.0,52.6 193.3,52.4 194.4,52.0 C195.4,51.6 196.3,51.0 197.1,50.4 C197.8,49.7 198.3,48.9 198.7,48.0 C199.1,47.0 199.3,46.1 199.3,45.1 C199.3,43.9 199.0,43.0 198.5,42.2 C197.9,41.5 197.2,40.9 196.3,40.3 C195.4,39.8 194.4,39.4 193.3,39.0 C192.2,38.6 191.0,38.3 189.9,37.9 C188.7,37.6 187.5,37.2 186.4,36.7 C185.3,36.3 184.3,35.8 183.4,35.1 C182.5,34.4 181.8,33.6 181.2,32.7 C180.7,31.8 180.4,30.6 180.4,29.2 C180.4,28.0 180.7,26.8 181.2,25.7 C181.7,24.6 182.5,23.6 183.4,22.8 C184.4,22.0 185.6,21.3 186.9,20.8 C188.3,20.3 189.9,20.0 191.6,20.0 C193.7,20.0 195.5,20.3 197.1,20.9 C198.7,21.5 200.2,22.4 201.5,23.7 L200.8,24.8 Z M223.0,22.5 C221.3,22.5 219.7,22.7 218.3,23.3 C217.0,23.8 215.8,24.6 214.8,25.6 C213.7,26.6 212.9,27.9 212.3,29.3 C211.7,30.7 211.3,32.3 211.1,34.1 L233.3,34.1 C233.3,32.3 233.1,30.6 232.6,29.2 C232.1,27.8 231.4,26.5 230.5,25.5 C229.6,24.6 228.5,23.8 227.2,23.3 C226.0,22.7 224.6,22.5 223.0,22.5 Z M223.0,20.0 C224.9,20.0 226.6,20.4 228.3,21.0 C229.9,21.7 231.3,22.6 232.5,23.9 C233.7,25.2 234.6,26.7 235.3,28.5 C235.9,30.4 236.3,32.5 236.3,34.9 C236.3,35.4 236.2,35.7 236.0,35.9 C235.9,36.1 235.7,36.2 235.3,36.2 L210.9,36.2 L210.9,36.8 C210.9,39.3 211.2,41.6 211.8,43.5 C212.4,45.4 213.2,47.0 214.3,48.3 C215.4,49.6 216.7,50.6 218.3,51.3 C219.8,51.9 221.5,52.3 223.4,52.3 C225.1,52.3 226.6,52.1 227.9,51.7 C229.1,51.3 230.2,50.9 231.0,50.4 C231.9,50.0 232.5,49.6 233.0,49.2 C233.5,48.8 233.9,48.6 234.1,48.6 C234.4,48.6 234.6,48.7 234.8,49.0 L235.7,50.1 C235.1,50.7 234.4,51.4 233.5,52.0 C232.6,52.5 231.6,53.1 230.5,53.5 C229.4,53.9 228.3,54.2 227.0,54.5 C225.7,54.7 224.5,54.8 223.2,54.8 C220.9,54.8 218.8,54.4 216.9,53.6 C215.0,52.8 213.3,51.7 212.0,50.1 C210.6,48.6 209.6,46.7 208.8,44.5 C208.1,42.2 207.7,39.7 207.7,36.8 C207.7,34.4 208.0,32.1 208.7,30.1 C209.4,28.0 210.4,26.3 211.7,24.8 C213.0,23.3 214.6,22.1 216.5,21.3 C218.4,20.5 220.6,20.0 223.0,20.0 Z" id="Text" fill="#262E39"></path>
  <path d="M63.9,33.3 L63.9,30.6 C63.9,28.3 63.0,26.2 61.3,24.2 C60.4,23.2 59.2,22.1 57.8,21.2 C57.1,20.7 56.3,20.2 55.4,19.7 C54.7,19.4 54.1,19.0 53.4,18.7 C51.5,17.9 49.5,17.2 47.3,16.6 C47.6,17.5 47.8,18.5 48.0,19.4 C48.2,20.4 48.4,21.4 48.6,22.4 C49.7,22.8 50.9,23.2 51.9,23.7 C52.4,23.9 52.9,24.1 53.4,24.4 C53.6,24.5 53.9,24.6 54.1,24.7 C55.0,25.2 55.7,25.7 56.4,26.2 C59.0,27.9 60.6,29.9 61.1,31.9 C60.6,34.0 59.0,36.0 56.4,37.7 C56.7,38.5 57.0,39.2 57.2,39.9 C57.5,40.8 57.7,41.8 57.8,42.7 C59.2,41.8 60.4,40.7 61.3,39.7 C63.0,37.7 63.9,35.6 63.9,33.3" id="Fill-1" fill="#2F577E"></path>
  <path d="M24.9,48.9 C23.8,48.0 22.7,47.1 21.7,46.1 C21.9,46.9 22.1,47.8 22.4,48.6 C23.2,48.7 24.1,48.8 24.9,48.9" id="Fill-2" fill="#2F577E"></path>
  <path d="M30.7,46.6 C31.1,46.9 31.5,47.2 31.9,47.5 C32.8,48.0 33.6,48.6 34.4,49.0 C34.5,49.1 34.6,49.2 34.7,49.2 C36.1,49.2 37.6,49.1 39.0,48.9 C39.8,48.8 40.7,48.7 41.5,48.6 C42.5,48.4 43.5,48.2 44.5,48.0 C45.4,47.8 46.4,47.6 47.3,47.3 C49.5,46.7 51.5,46.0 53.4,45.2 C53.2,44.3 53.0,43.4 52.7,42.5 C52.6,42.3 52.6,42.0 52.5,41.7 C52.3,41.2 52.1,40.7 51.9,40.2 C50.9,40.7 49.7,41.1 48.6,41.5 C47.8,41.8 46.9,42.0 46.1,42.2 C46.0,42.3 45.9,42.3 45.8,42.3 C44.8,42.6 43.9,42.8 42.9,42.9 C42.4,43.0 41.9,43.1 41.4,43.2 C39.9,43.5 38.4,43.6 36.8,43.8 C35.2,43.9 33.6,44.0 31.9,44.0 C30.3,44.0 28.7,43.9 27.1,43.8 C28.2,44.8 29.5,45.7 30.7,46.6" id="Fill-3" fill="#2F577E"></path>
  <path d="M11.2,21.4 C11.2,21.6 11.3,21.9 11.4,22.2 C11.6,22.7 11.8,23.2 12.0,23.7 C13.0,23.2 14.2,22.8 15.3,22.4 C16.1,22.1 17.0,21.9 17.8,21.7 C17.9,21.6 18.0,21.6 18.1,21.6 C19.1,21.4 20.0,21.1 21.0,21.0 C21.5,20.9 22.0,20.8 22.5,20.7 C24.0,20.5 25.5,20.3 27.1,20.1 C28.7,20.0 30.3,20.0 31.9,20.0 C33.6,20.0 35.2,20.0 36.8,20.1 C35.7,19.1 34.4,18.2 33.2,17.3 C32.8,17.0 32.4,16.7 31.9,16.4 C31.1,15.9 30.3,15.3 29.5,14.9 C29.4,14.8 29.3,14.7 29.2,14.7 C27.7,14.7 26.3,14.9 24.9,15.0 C24.1,15.1 23.2,15.2 22.4,15.3 C21.4,15.5 20.4,15.7 19.4,15.9 C18.5,16.1 17.5,16.3 16.6,16.6 C14.4,17.2 12.4,17.9 10.5,18.7 C10.7,19.6 10.9,20.5 11.2,21.4" id="Fill-4" fill="#2F577E"></path>
  <path d="M39.0,15.0 C40.1,15.9 41.2,16.8 42.2,17.8 C42.0,17.0 41.8,16.1 41.5,15.3 C40.7,15.2 39.8,15.1 39.0,15.0" id="Fill-5" fill="#2F577E"></path>
  <path d="M2.8,31.9 C3.3,29.9 4.9,27.9 7.5,26.2 C7.2,25.4 6.9,24.7 6.7,24.0 C6.4,23.1 6.2,22.1 6.0,21.2 C4.7,22.1 3.5,23.2 2.6,24.2 C0.9,26.2 6.7e-14,28.3 6.7e-14,30.6 L6.7e-14,33.3 C6.7e-14,35.6 0.9,37.7 2.6,39.7 C3.5,40.7 4.7,41.7 6.0,42.7 C6.8,43.2 7.6,43.7 8.5,44.2 C9.2,44.5 9.8,44.9 10.5,45.2 C12.4,46.0 14.4,46.7 16.6,47.3 C16.3,46.4 16.1,45.4 15.9,44.5 C15.7,43.5 15.5,42.5 15.3,41.5 C14.2,41.1 13.0,40.7 12.0,40.2 C11.5,40.0 11.0,39.8 10.5,39.5 C10.3,39.4 10.0,39.3 9.8,39.2 C8.9,38.7 8.2,38.2 7.5,37.7 C4.9,36.0 3.3,34.0 2.8,31.9" id="Fill-6" fill="#2F577E"></path>
  <path d="M39.0,48.9 C37.6,49.0 36.1,49.2 34.7,49.2 C35.4,49.7 36.2,50.1 36.9,50.4 C37.6,49.9 38.3,49.4 39.0,48.9" id="Fill-7" fill="#F4B563"></path>
  <path d="M55.5,10.3 L53.6,8.4 C52.0,6.8 49.8,5.9 47.2,5.7 C45.8,5.6 44.3,5.8 42.7,6.1 C41.8,6.2 40.8,6.5 39.9,6.7 C39.2,6.9 38.5,7.2 37.7,7.5 C35.9,8.2 33.9,9.1 31.9,10.2 C32.8,10.7 33.6,11.2 34.5,11.8 C35.3,12.3 36.1,12.9 36.9,13.5 C38.0,12.9 39.1,12.4 40.2,12.0 C40.7,11.8 41.2,11.6 41.7,11.4 C42.0,11.3 42.3,11.3 42.5,11.2 C43.4,10.9 44.3,10.7 45.2,10.5 C48.2,10.0 50.8,10.3 52.6,11.3" id="Fill-8" fill="#F4B563"></path>
  <path d="M52.6,11.3 C53.6,13.1 53.9,15.7 53.4,18.7 C54.1,19.0 54.7,19.4 55.4,19.7 C56.3,20.2 57.1,20.7 57.8,21.2 C58.1,19.6 58.3,18.1 58.2,16.7 C58.0,14.1 57.1,11.9 55.5,10.3 C55.2,9.9 54.9,9.7 54.5,9.4" id="Fill-9" fill="#F4B563"></path>
  <path d="M41.4,43.2 C41.9,43.1 42.4,43.0 42.9,42.9 C43.9,42.8 44.8,42.6 45.8,42.3 C45.9,42.3 46.0,42.3 46.1,42.2 C47.1,41.2 48.0,40.1 48.9,39.0 C49.4,38.3 50.0,37.6 50.4,36.9 C51.0,36.1 51.6,35.3 52.2,34.5 C52.7,33.6 53.2,32.8 53.7,32.0 C54.8,30.0 55.7,28.0 56.4,26.2 C55.7,25.7 55.0,25.2 54.1,24.7 C53.9,24.6 53.6,24.5 53.4,24.4 C52.9,24.1 52.4,23.9 51.9,23.7 C51.5,24.8 51.0,25.9 50.4,27.0 C50.1,27.7 49.7,28.5 49.2,29.2 C49.2,29.3 49.1,29.4 49.0,29.5 C48.6,30.3 48.0,31.1 47.5,32.0 C47.2,32.4 46.9,32.8 46.6,33.2 C45.7,34.4 44.8,35.7 43.8,36.8 C42.7,38.1 41.6,39.3 40.4,40.4 C39.3,41.6 38.1,42.7 36.8,43.8 C38.4,43.6 39.9,43.5 41.4,43.2" id="Fill-10" fill="#F4B563"></path>
  <path d="M24.9,15.0 C26.3,14.8 27.7,14.7 29.2,14.7 C28.5,14.2 27.7,13.8 27.0,13.5 C26.3,13.9 25.6,14.5 24.9,15.0" id="Fill-11" fill="#F4B563"></path>
  <path d="M11.3,52.6 C10.3,50.8 10.0,48.2 10.5,45.2 C9.8,44.9 9.2,44.5 8.5,44.2 C7.6,43.7 6.8,43.2 6.0,42.7 C5.8,44.3 5.6,45.8 5.7,47.2 C5.9,49.8 6.8,52.0 8.4,53.6 L10.3,55.5 C11.9,57.1 14.1,58.0 16.7,58.2 C18.1,58.3 19.6,58.1 21.2,57.9 C22.1,57.7 23.1,57.5 24.0,57.2 C24.7,57.0 25.4,56.7 26.2,56.4 C28.0,55.7 30.0,54.8 31.9,53.7 C31.1,53.2 30.3,52.7 29.4,52.2 C28.6,51.6 27.8,51.1 27.0,50.5 C25.9,51.0 24.8,51.5 23.7,51.9 C23.2,52.1 22.7,52.3 22.2,52.5 C21.9,52.6 21.6,52.7 21.4,52.7 C20.5,53.0 19.6,53.2 18.7,53.4 C15.7,53.9 13.1,53.6 11.3,52.6" id="Fill-12" fill="#F4B563"></path>
  <path d="M9.8,39.2 C10.0,39.3 10.3,39.4 10.5,39.5 C11.0,39.8 11.5,40.0 12.0,40.2 C12.4,39.1 12.9,38.0 13.5,36.9 C13.8,36.2 14.2,35.4 14.7,34.7 C14.7,34.6 14.8,34.5 14.9,34.4 C15.3,33.6 15.9,32.8 16.4,31.9 C16.7,31.5 17.0,31.1 17.3,30.7 C18.2,29.5 19.1,28.2 20.1,27.1 C21.2,25.8 22.3,24.6 23.5,23.5 C24.6,22.3 25.8,21.2 27.1,20.1 C25.5,20.3 24.0,20.4 22.5,20.7 C22.0,20.8 21.5,20.9 21.0,21.0 C20.0,21.1 19.1,21.4 18.1,21.6 C18.0,21.6 17.9,21.6 17.8,21.7 C16.8,22.7 15.9,23.8 15.0,24.9 C14.5,25.6 13.9,26.3 13.4,27.0 C12.9,27.8 12.3,28.6 11.7,29.4 C11.2,30.3 10.7,31.1 10.2,31.9 C9.1,33.9 8.2,35.9 7.5,37.7 C8.2,38.2 8.9,38.7 9.8,39.2" id="Fill-13" fill="#F4B563"></path>
  <path d="M15.0,39.0 C14.8,37.6 14.7,36.1 14.7,34.7 C14.2,35.4 13.8,36.2 13.5,36.9 C13.9,37.6 14.5,38.3 15.0,39.0" id="Fill-14" fill="#5CAFCD"></path>
  <path d="M11.3,11.3 C13.1,10.3 15.7,10.0 18.7,10.5 C19.0,9.8 19.4,9.2 19.7,8.5 C20.2,7.6 20.7,6.8 21.2,6.1 C19.6,5.8 18.1,5.6 16.7,5.7 C14.1,5.9 11.9,6.8 10.3,8.4 C9.9,8.7 9.7,9.0 9.4,9.4 C9.7,9.0 9.9,8.7 10.3,8.4 L8.4,10.3 C6.8,11.9 5.9,14.1 5.7,16.7 C5.6,18.1 5.8,19.6 6.0,21.2 C6.2,22.1 6.4,23.1 6.7,24.0 C6.9,24.7 7.2,25.4 7.5,26.2 C8.2,28.0 9.1,30.0 10.2,32.0 C10.7,31.1 11.2,30.3 11.7,29.4 C12.3,28.6 12.9,27.8 13.4,27.0 C12.9,25.9 12.4,24.8 12.0,23.7 C11.8,23.2 11.6,22.7 11.4,22.2 C11.3,21.9 11.2,21.6 11.2,21.4 C10.9,20.5 10.7,19.6 10.5,18.7 C10.0,15.7 10.3,13.1 11.3,11.3" id="Fill-15" fill="#5CAFCD"></path>
  <path d="M48.9,24.9 C49.0,26.3 49.2,27.8 49.2,29.2 C49.7,28.5 50.1,27.7 50.4,27.0 C50.0,26.3 49.4,25.6 48.9,24.9" id="Fill-16" fill="#5CAFCD"></path>
  <path d="M43.2,22.5 C43.1,22.0 43.0,21.5 42.9,21.0 C42.8,20.0 42.5,19.1 42.3,18.1 C42.3,18.0 42.3,17.9 42.2,17.8 C41.2,16.8 40.1,15.9 39.0,15.0 C38.3,14.5 37.6,13.9 36.9,13.5 C36.1,12.9 35.3,12.3 34.5,11.7 C33.6,11.2 32.8,10.7 31.9,10.2 C30.0,9.1 28.0,8.2 26.2,7.5 C25.7,8.2 25.2,8.9 24.7,9.8 C24.6,10.0 24.5,10.3 24.4,10.5 C24.1,11.0 23.9,11.5 23.7,12.0 C24.8,12.4 25.9,12.9 27.0,13.5 C27.7,13.8 28.5,14.2 29.2,14.7 C29.3,14.7 29.4,14.8 29.5,14.9 C30.3,15.3 31.1,15.9 31.9,16.4 C32.4,16.7 32.8,17.0 33.2,17.3 C34.4,18.2 35.7,19.1 36.8,20.1 C38.1,21.2 39.3,22.3 40.4,23.5 C41.6,24.6 42.7,25.8 43.8,27.1 C43.6,25.5 43.4,24.0 43.2,22.5" id="Fill-17" fill="#5CAFCD"></path>
  <path d="M20.7,41.4 C20.8,41.9 20.9,42.4 21.0,42.9 C21.1,43.9 21.4,44.8 21.6,45.8 C21.6,45.9 21.6,46.0 21.7,46.1 C22.7,47.1 23.8,48.0 24.9,48.9 C25.6,49.4 26.3,50.0 27.0,50.4 C27.8,51.0 28.6,51.6 29.4,52.2 C30.3,52.7 31.1,53.2 31.9,53.7 C33.9,54.8 35.9,55.7 37.7,56.4 C38.2,55.7 38.7,55.0 39.2,54.1 C39.3,53.9 39.4,53.6 39.5,53.4 C39.8,52.9 40.0,52.4 40.2,51.9 C39.1,51.5 38.0,51.0 36.9,50.4 C36.2,50.1 35.4,49.7 34.7,49.2 C34.6,49.2 34.5,49.1 34.4,49.0 C33.6,48.6 32.8,48.0 31.9,47.5 C31.5,47.2 31.1,46.9 30.7,46.6 C29.5,45.7 28.2,44.8 27.1,43.8 C25.8,42.7 24.6,41.6 23.5,40.4 C22.3,39.3 21.2,38.1 20.1,36.8 C20.3,38.4 20.4,39.9 20.7,41.4" id="Fill-18" fill="#5CAFCD"></path>
  <path d="M53.6,55.5 L55.5,53.6 C57.1,52.0 58.0,49.8 58.2,47.2 C58.3,45.8 58.1,44.3 57.8,42.7 C57.7,41.8 57.5,40.8 57.2,39.9 C57.0,39.2 56.7,38.5 56.4,37.7 C55.7,35.9 54.8,33.9 53.7,32 C53.2,32.8 52.7,33.6 52.2,34.5 C51.6,35.3 51.0,36.1 50.4,36.9 C51.0,38.0 51.5,39.1 51.9,40.2 C52.1,40.7 52.3,41.2 52.5,41.7 C52.6,42.0 52.6,42.3 52.7,42.5 C53.0,43.4 53.2,44.3 53.4,45.2 C53.9,48.2 53.6,50.8 52.6,52.6 C50.8,53.6 48.2,53.9 45.2,53.4 C44.9,54.1 44.5,54.7 44.2,55.4 C43.7,56.3 43.2,57.1 42.7,57.8 C44.3,58.1 45.8,58.3 47.2,58.2 C49.8,58.0 52.0,57.1 53.6,55.5" id="Fill-19" fill="#5CAFCD"></path>
  <path d="M17.3,30.7 C17.0,31.1 16.7,31.5 16.4,32.0 C15.9,32.8 15.3,33.6 14.9,34.4 C14.8,34.5 14.7,34.6 14.7,34.7 C14.7,36.1 14.8,37.6 15.0,39.0 C15.1,39.8 15.2,40.7 15.3,41.5 C15.5,42.5 15.7,43.5 15.9,44.5 C16.1,45.4 16.3,46.4 16.6,47.3 C17.2,49.5 17.9,51.5 18.7,53.4 C19.6,53.2 20.5,53.0 21.4,52.7 C21.6,52.6 21.9,52.6 22.2,52.5 C22.7,52.3 23.2,52.1 23.7,51.9 C23.2,50.9 22.8,49.7 22.4,48.6 C22.1,47.8 21.9,46.9 21.7,46.1 C21.6,46.0 21.6,45.9 21.6,45.8 C21.4,44.8 21.1,43.9 21.0,42.9 C20.9,42.4 20.8,41.9 20.7,41.4 C20.4,39.9 20.3,38.4 20.1,36.8 C20.0,35.2 19.9,33.6 19.9,32.0 C19.9,30.3 20.0,28.7 20.1,27.1 C19.1,28.2 18.2,29.5 17.3,30.7" id="Fill-20" fill="#47B178"></path>
  <path d="M48.9,39.0 C48.0,40.1 47.1,41.2 46.1,42.2 C46.9,42.0 47.8,41.8 48.6,41.5 C48.7,40.7 48.8,39.8 48.9,39.0" id="Fill-21" fill="#47B178"></path>
  <path d="M15.0,24.9 C15.9,23.8 16.8,22.8 17.8,21.7 C17.0,21.9 16.1,22.1 15.3,22.4 C15.2,23.2 15.1,24.1 15.0,24.9" id="Fill-22" fill="#47B178"></path>
  <path d="M46.6,33.2 C46.9,32.8 47.2,32.4 47.5,32.0 C48.0,31.1 48.6,30.3 49.0,29.5 C49.1,29.4 49.2,29.3 49.2,29.2 C49.2,27.8 49.0,26.3 48.9,24.9 C48.8,24.1 48.7,23.2 48.6,22.4 C48.4,21.4 48.2,20.4 48.0,19.4 C47.8,18.5 47.6,17.5 47.3,16.6 C46.7,14.4 46.0,12.4 45.2,10.5 C44.3,10.7 43.4,10.9 42.5,11.2 C42.3,11.3 42.0,11.3 41.7,11.4 C41.2,11.6 40.7,11.8 40.2,12.0 C40.7,13.0 41.1,14.2 41.5,15.3 C41.8,16.1 42.0,17.0 42.2,17.8 C42.3,17.9 42.3,18.0 42.3,18.1 C42.5,19.1 42.8,20.0 42.9,21.0 C43.0,21.5 43.1,22.0 43.2,22.5 C43.4,24.0 43.6,25.5 43.8,27.1 C43.9,28.7 43.9,30.3 43.9,32.0 C43.9,33.6 43.9,35.2 43.8,36.8 C44.8,35.7 45.7,34.4 46.6,33.2" id="Fill-23" fill="#47B178"></path>
  <path d="M42.7,6.0 C41.7,4.7 40.7,3.5 39.7,2.6 C37.7,0.9 35.6,0 33.3,0 L30.6,0 C28.3,0 26.2,0.9 24.2,2.6 C23.2,3.5 22.1,4.7 21.2,6.0 C20.7,6.8 20.2,7.6 19.7,8.5 C19.4,9.2 19.0,9.8 18.7,10.5 C17.9,12.4 17.2,14.4 16.6,16.6 C17.5,16.3 18.5,16.1 19.4,15.9 C20.4,15.7 21.4,15.5 22.4,15.3 C22.8,14.2 23.2,13.0 23.7,12.0 C23.9,11.5 24.1,11.0 24.4,10.5 C24.5,10.3 24.6,10.0 24.7,9.8 C25.2,8.9 25.7,8.2 26.2,7.5 C27.9,4.9 29.9,3.3 31.9,2.8 C34.0,3.3 36.0,4.9 37.7,7.5 C38.5,7.2 39.2,6.9 39.9,6.7" id="Fill-24" fill="#47B178"></path>
  <path d="M30.6,63.9 L33.3,63.9 C35.6,63.9 37.7,63.0 39.7,61.3 C40.7,60.4 41.7,59.2 42.7,57.8 C43.2,57.1 43.7,56.3 44.2,55.4 C44.5,54.7 44.9,54.1 45.2,53.4 C46.0,51.5 46.7,49.5 47.3,47.3 L44.5,48.0 C43.5,48.2 42.5,48.4 41.5,48.6 C41.1,49.7 40.7,50.9 40.2,51.9 C40.0,52.4 39.8,52.9 39.5,53.4 C39.4,53.6 39.3,53.9 39.2,54.1 C38.7,55.0 38.2,55.7 37.7,56.4 C36.0,59.0 34.0,60.6 31.9,61.1 C29.9,60.6 27.9,59.0 26.2,56.4 C25.4,56.7 24.7,57.0 24.0,57.2 L21.2,57.8 C22.1,59.2 23.2,60.4 24.2,61.3 C26.2,63.0 28.3,63.9 30.6,63.9" id="Fill-26" fill="#47B178"></path>
</svg>
